<svg width="15" height="14" viewBox="0 0 15 14" fill="none" xmlns="http://www.w3.org/2000/svg">
<path d="M11.8056 10.4122C12.0023 10.4122 12.1868 10.4475 12.3589 10.5181C12.5311 10.5888 12.6811 10.6853 12.809 10.8078C12.9369 10.9303 13.0378 11.0739 13.1115 11.2387C13.1853 11.4036 13.2222 11.5802 13.2222 11.7686C13.2222 11.957 13.1853 12.1336 13.1115 12.2984C13.0378 12.4633 12.9369 12.6069 12.809 12.7294C12.6811 12.8518 12.5311 12.9484 12.3589 13.019C12.1868 13.0897 12.0023 13.125 11.8056 13.125C11.6088 13.125 11.4243 13.0897 11.2522 13.019C11.08 12.9484 10.93 12.8518 10.8021 12.7294C10.6742 12.6069 10.5734 12.4633 10.4996 12.2984C10.4258 12.1336 10.3889 11.957 10.3889 11.7686V11.7686C10.3889 11.5429 10.2342 11.3165 10.0085 11.3165H6.99148C6.76575 11.3165 6.61111 11.5429 6.61111 11.7686V11.7686C6.61111 11.957 6.57422 12.1336 6.50043 12.2984C6.42665 12.4633 6.32581 12.6069 6.19792 12.7294C6.07002 12.8518 5.91999 12.9484 5.74783 13.019C5.57567 13.0897 5.3912 13.125 5.19444 13.125C4.99769 13.125 4.81322 13.0897 4.64106 13.019C4.4689 12.9484 4.31887 12.8518 4.19097 12.7294C4.06308 12.6069 3.96224 12.4633 3.88845 12.2984C3.81467 12.1336 3.77778 11.957 3.77778 11.7686C3.77778 11.5096 3.8491 11.2694 3.99175 11.048V11.048C4.23271 10.6741 4.47017 10.2244 4.32423 9.80416L1.58471 1.9169C1.47085 1.58911 1.16191 1.36937 0.814911 1.36937H0.45214C0.20243 1.36937 0 1.16694 0 0.917228V0.917228C0 0.667518 0.20243 0.465088 0.45214 0.465088H1.36171C1.78771 0.465088 2.16694 0.734965 2.30651 1.13745L2.46736 1.60129C2.60693 2.00377 2.98616 2.27365 3.41216 2.27365H13.7051C14.393 2.27365 14.8755 2.95201 14.6498 3.60178L13.1457 7.93174C13.006 8.33397 12.6269 8.60361 12.2011 8.60361H6.17738C5.55556 8.60361 5.11928 9.21668 5.32301 9.80417V9.80417C5.44922 10.1681 5.79216 10.4122 6.17738 10.4122H11.8056ZM5.66667 11.7686C5.66667 11.6461 5.61994 11.5402 5.52648 11.4507C5.43302 11.3612 5.32234 11.3165 5.19444 11.3165C5.06655 11.3165 4.95587 11.3612 4.86241 11.4507C4.76895 11.5402 4.72222 11.6461 4.72222 11.7686C4.72222 11.8911 4.76895 11.997 4.86241 12.0865C4.95587 12.176 5.06655 12.2207 5.19444 12.2207C5.32234 12.2207 5.43302 12.176 5.52648 12.0865C5.61994 11.997 5.66667 11.8911 5.66667 11.7686ZM11.8056 12.2207C11.9334 12.2207 12.0441 12.176 12.1376 12.0865C12.231 11.997 12.2778 11.8911 12.2778 11.7686C12.2778 11.6461 12.231 11.5402 12.1376 11.4507C12.0441 11.3612 11.9334 11.3165 11.8056 11.3165C11.6777 11.3165 11.567 11.3612 11.4735 11.4507C11.3801 11.5402 11.3333 11.6461 11.3333 11.7686C11.3333 11.8911 11.3801 11.997 11.4735 12.0865C11.567 12.176 11.6777 12.2207 11.8056 12.2207Z" fill="white"/>
</svg>
