<svg width="16" height="14" viewBox="0 0 16 14" fill="none" xmlns="http://www.w3.org/2000/svg">
<path d="M11.6526 0.465448C12.2085 0.465448 12.7299 0.573878 13.2169 0.790739C13.7038 1.0076 14.1293 1.30011 14.4933 1.66827C14.8573 2.03642 15.1426 2.47267 15.3492 2.97699C15.5558 3.48132 15.6616 4.01591 15.6665 4.58075C15.6665 5.13047 15.5657 5.65749 15.364 6.16181C15.1623 6.66614 14.8721 7.10995 14.4933 7.49324L8.96953 13.1501C8.4987 13.6322 7.72324 13.6322 7.25241 13.1501L1.7286 7.49324C1.35475 7.10995 1.06699 6.66614 0.865315 6.16181C0.663637 5.65749 0.560339 5.13047 0.55542 4.58075C0.55542 4.01591 0.658718 3.48384 0.865315 2.98456C1.07191 2.48528 1.35967 2.04903 1.7286 1.67583C2.09752 1.30263 2.52301 1.0076 3.00507 0.790739C3.48713 0.573878 4.00854 0.465448 4.56931 0.465448C4.97758 0.465448 5.34159 0.513359 5.66132 0.609181C5.98105 0.705003 6.27619 0.836128 6.54673 1.00256C6.81728 1.16898 7.07798 1.37324 7.32885 1.61531V1.61531C7.76116 2.03247 8.45314 2.0322 8.88571 1.61531V1.61531C9.13166 1.37828 9.39236 1.17655 9.66783 1.01012C9.94329 0.843693 10.2409 0.710046 10.5606 0.609181C10.8804 0.508316 11.2444 0.460405 11.6526 0.465448ZM13.8219 6.80483C14.1121 6.50728 14.3335 6.16686 14.486 5.78357C14.6385 5.40028 14.7147 4.99934 14.7147 4.58075C14.7147 4.14199 14.636 3.73348 14.4786 3.35524C14.3212 2.97699 14.1047 2.64666 13.8293 2.36424C13.5538 2.08181 13.2292 1.86243 12.8553 1.70609C12.4815 1.54975 12.0806 1.46906 11.6526 1.46401C11.2394 1.46401 10.873 1.52958 10.5532 1.6607C10.2335 1.79183 9.93837 1.96834 9.66783 2.19024C9.39728 2.41215 9.13904 2.65675 8.89309 2.92404C8.88948 2.92796 8.88586 2.93189 8.88224 2.93582C8.46439 3.38977 7.75009 3.39676 7.33623 2.93917V2.93917C7.08536 2.66179 6.82466 2.41215 6.55411 2.19024C6.28357 1.96834 5.98597 1.78678 5.66132 1.64557C5.33667 1.50436 4.97266 1.43375 4.56931 1.43375C4.14627 1.43375 3.74784 1.51445 3.37399 1.67583C3.00015 1.83722 2.6755 2.06164 2.40004 2.34911C2.12457 2.63657 1.90568 2.97195 1.74335 3.35524C1.58103 3.73853 1.49986 4.14703 1.49986 4.58075C1.49986 4.99934 1.57611 5.40028 1.7286 5.78357C1.88108 6.16686 2.1049 6.50728 2.40004 6.80483L7.25192 11.7793C7.72285 12.2621 8.49908 12.2621 8.97002 11.7793L13.8219 6.80483Z" fill="white"/>
</svg>
