<svg width="17" height="12" viewBox="0 0 17 12" fill="none" xmlns="http://www.w3.org/2000/svg">
<path d="M8.83325 0.428115C9.66333 0.428115 10.4713 0.565872 11.2571 0.841386C12.0429 1.1169 12.7955 1.49485 13.5149 1.97523C14.2343 2.45562 14.915 3.03137 15.5569 3.7025C15.9566 4.12038 16.337 4.55608 16.6981 5.00957C17.0928 5.50526 17.0962 6.20447 16.7038 6.70192C16.3426 7.15968 15.9631 7.59396 15.5652 8.00476C14.9288 8.66176 14.2481 9.23398 13.5232 9.72143C12.7983 10.2089 12.0429 10.5904 11.2571 10.8659C10.4713 11.1414 9.66333 11.2791 8.83325 11.2791C8.00317 11.2791 7.19523 11.1414 6.40942 10.8659C5.62362 10.5904 4.87101 10.2124 4.15161 9.73202C3.43221 9.25164 2.74878 8.67942 2.10132 8.01536C1.69241 7.59597 1.30668 7.15404 0.944128 6.68956C0.560606 6.19823 0.56411 5.51148 0.949765 5.02181C1.31272 4.56098 1.69657 4.1212 2.10132 3.7025C2.74325 3.03844 3.42391 2.46621 4.14331 1.98583C4.86271 1.50545 5.61808 1.12397 6.40942 0.841386C7.20076 0.558808 8.00871 0.42105 8.83325 0.428115ZM12.0208 5.85363C12.0208 5.29554 11.9377 4.76923 11.7717 4.27472C11.6057 3.78021 11.3761 3.34927 11.0828 2.98192C10.7895 2.61457 10.4519 2.32493 10.0701 2.11299C9.68823 1.90106 9.27596 1.79156 8.83325 1.78449C8.39608 1.78449 7.98381 1.89046 7.59644 2.10239C7.20907 2.31433 6.8715 2.6075 6.58374 2.98192C6.29598 3.35634 6.06909 3.78727 5.90308 4.27472C5.73706 4.76217 5.65129 5.28847 5.64575 5.85363C5.64575 6.41172 5.72876 6.93803 5.89478 7.43254C6.06079 7.92705 6.29045 8.35799 6.58374 8.72534C6.87703 9.09269 7.2146 9.38233 7.59644 9.59427C7.97827 9.8062 8.39054 9.9157 8.83325 9.92276C9.27043 9.92276 9.6827 9.8168 10.0701 9.60486C10.4574 9.39293 10.795 9.09975 11.0828 8.72534C11.3705 8.35092 11.5974 7.91999 11.7634 7.43254C11.9294 6.94509 12.0152 6.41879 12.0208 5.85363ZM2.59181 4.94069C2.11038 5.45546 2.11269 6.24993 2.59588 6.76304C2.87627 7.06079 3.16519 7.344 3.46265 7.61268C3.64694 7.77915 3.83533 7.93759 4.02782 8.08802C4.39044 8.37139 4.88997 7.933 4.78247 7.48552C4.65519 6.95569 4.58879 6.41172 4.58325 5.85363C4.58325 5.3026 4.64689 4.76217 4.77417 4.23233C4.88333 3.7779 4.38189 3.3332 4.01353 3.62083C3.826 3.76725 3.64238 3.92164 3.46265 4.08398C3.16375 4.35396 2.87347 4.63953 2.59181 4.94069ZM12.8923 7.47493C12.7832 7.92936 13.2846 8.37406 13.653 8.08643C13.8405 7.94 14.0241 7.78562 14.2039 7.62328C14.5028 7.3533 14.793 7.06773 15.0747 6.76656C15.5561 6.2518 15.5538 5.45733 15.0706 4.94422C14.7902 4.64647 14.5013 4.36326 14.2039 4.09458C14.0196 3.92811 13.8312 3.76967 13.6387 3.61924C13.2761 3.33586 12.7765 3.77426 12.884 4.22174C13.0113 4.75157 13.0777 5.29554 13.0833 5.85363C13.0833 6.40466 13.0196 6.94509 12.8923 7.47493ZM8.83325 7.21001C8.68384 7.21001 8.54549 7.17469 8.41821 7.10404C8.29093 7.0334 8.18026 6.93803 8.08618 6.81793C7.99211 6.69783 7.91463 6.55301 7.85376 6.38346C7.79289 6.21392 7.76522 6.03731 7.77075 5.85363C7.77075 5.66289 7.79842 5.48628 7.85376 5.32379C7.9091 5.16131 7.98381 5.02002 8.07788 4.89993C8.17196 4.77983 8.2854 4.68093 8.41821 4.60322C8.55103 4.52551 8.68937 4.49019 8.83325 4.49725C8.98267 4.49725 9.12101 4.53257 9.24829 4.60322C9.37557 4.67386 9.48625 4.76923 9.58032 4.88933C9.6744 5.00942 9.75187 5.15425 9.81274 5.32379C9.87362 5.49334 9.90129 5.66995 9.89575 5.85363C9.89575 6.04437 9.86808 6.22098 9.81274 6.38346C9.75741 6.54595 9.6827 6.68724 9.58862 6.80733C9.49455 6.92743 9.3811 7.02633 9.24829 7.10404C9.11548 7.18175 8.97713 7.21707 8.83325 7.21001Z" fill="white"/>
</svg>
